# xmcd
#
# Track frame offsets:
# 150
# 12405
# 18700
# 34425
# 41289
# 52959
# 64640
# 76860
# 86799
# 97460
# 109788
#
# Disc length: 1632 seconds
#
#
# Revision: 0
# Processed by: cddbd v1.5.1PL2 Copyright (c) Steve Scherf et al.
# Submitted via: FreeRIP 2.60 
#
DISCID=8d065e0b
DTITLE=The Oak Ridge Boys - Bluegrass Favorites - Disc 2
DYEAR=2005
DGENRE=Bluegrass
TTITLE0=When I Lay My Burden Down
TTITLE1=The Christian Way
TTITLE2=Just A Closer Walk
TTITLE3=Each Step I Take
TTITLE4=Only Trust Him
TTITLE5=No One Cared So Much
TTITLE6=On The Sunny Banks
TTITLE7=There Is Sunshine In My Soul
TTITLE8=It's Different Now
TTITLE9=I Want To See Jusus Most Of All
TTITLE10=Rock Of Ages
EXTD=
EXTT0=
EXTT1=
EXTT2=
EXTT3=
EXTT4=
EXTT5=
EXTT6=
EXTT7=
EXTT8=
EXTT9=
EXTT10=
PLAYORDER=
